<?xml version="1.0" encoding="UTF-8" standalone="no"?>
<!-- Created with Inkscape (http://www.inkscape.org/) -->

<svg
   width="907"
   height="907"
   viewBox="0 0 239.97708 239.97708"
   version="1.1"
   id="svg5"
   xml:space="preserve"
   inkscape:version="1.3.1 (91b66b0, 2023-11-16)"
   sodipodi:docname="icon.svg"
   inkscape:export-filename="icon.png"
   inkscape:export-xdpi="96"
   inkscape:export-ydpi="96"
   xmlns:inkscape="http://www.inkscape.org/namespaces/inkscape"
   xmlns:sodipodi="http://sodipodi.sourceforge.net/DTD/sodipodi-0.dtd"
   xmlns="http://www.w3.org/2000/svg"
   xmlns:svg="http://www.w3.org/2000/svg"><sodipodi:namedview
     id="namedview7"
     pagecolor="#0f9dda"
     bordercolor="#999999"
     borderopacity="1"
     inkscape:showpageshadow="0"
     inkscape:pageopacity="0"
     inkscape:pagecheckerboard="0"
     inkscape:deskcolor="#d1d1d1"
     inkscape:document-units="mm"
     showgrid="false"
     inkscape:zoom="0.4204826"
     inkscape:cx="495.85881"
     inkscape:cy="677.79261"
     inkscape:window-width="1580"
     inkscape:window-height="884"
     inkscape:window-x="272"
     inkscape:window-y="186"
     inkscape:window-maximized="0"
     inkscape:current-layer="svg5"
     showguides="true"
     inkscape:export-bgcolor="#0f9ddaff"><sodipodi:guide
       position="69.454215,120.00798"
       orientation="0,-1"
       id="guide1"
       inkscape:locked="false" /></sodipodi:namedview><defs
     id="defs2"><inkscape:path-effect
       effect="perspective-envelope"
       up_left_point="19.169533,188.95963"
       up_right_point="555.22961,188.95963"
       down_left_point="19.169533,505.52955"
       down_right_point="555.22961,505.52955"
       id="path-effect1163"
       is_visible="true"
       lpeversion="1"
       deform_type="envelope_deformation"
       horizontal_mirror="true"
       vertical_mirror="false"
       overflow_perspective="false" /><inkscape:path-effect
       effect="bounding_box"
       id="path-effect1114"
       is_visible="true"
       lpeversion="1"
       linkedpath=""
       visualbounds="true" /></defs><g
     id="g2"
     transform="matrix(1.0361531,0,0,1.0361531,-4.2740204,1.6791415)"><g
       id="g1"
       transform="matrix(5.8658214,0,0,6.3363237,14.600251,32.406206)"
       style="fill:none;fill-opacity:1;stroke:#ffffff;stroke-width:1.56187;stroke-dasharray:none;stroke-opacity:1"><g
         inkscape:label="orig"
         id="layer1"
         transform="translate(0,-271.07084)"
         style="display:none;fill:none;fill-opacity:1;stroke:#ffffff;stroke-width:1.56187;stroke-dasharray:none;stroke-opacity:1"><path
           style="display:inline;fill:none;fill-opacity:1;stroke:#ffffff;stroke-width:1.56187;stroke-dasharray:none;stroke-opacity:1;stop-color:#000000"
           d="m 11.884068,295.743 c -1.722221,-0.3973 -3.1396978,-1.32911 -4.1821898,-2.74927 -0.3751042,-0.511 -0.4012367,-0.52569 -0.9387613,-0.52778 -2.9780208,-0.0116 -5.0765401,-1.72406 -5.5249719,-4.50857 -0.1534601,-0.95289 0.01589,-2.00408 0.4734458,-2.93873 0.2869878,-0.58624 0.5812604,-0.95873 1.295272,-1.6396 1.0289526,-0.98118 0.9714643,-0.7766 0.6347262,-2.25868 -0.2516855,-1.10775 -0.1722891,-2.67964 0.1844937,-3.65264 0.6319495,-1.72341 1.7407869,-2.9911 3.3209013,-3.79665 1.0146205,-0.51724 1.7654786,-0.68682 3.041184,-0.68682 1.890492,0 3.257439,0.58807 4.855376,2.08884 0.406737,0.38201 0.81291,0.69456 0.902607,0.69456 0.0897,0 0.528366,-0.26209 0.974823,-0.58243 1.729166,-1.2407 3.668095,-1.43231 5.475058,-0.54108 0.617329,0.30448 0.948098,0.5719 1.667883,1.34847 l 0.89784,0.96868 0.963083,-0.37633 c 1.783957,-0.69711 3.153161,-0.76493 4.809144,-0.23823 2.624166,0.83464 4.397136,3.13797 4.605103,5.98268 0.133246,1.8226 -0.572663,3.67801 -1.913053,5.02827 -1.362068,1.37209 -2.972701,2.00567 -5.099521,2.00603 l -1.133707,2.2e-4 -0.309566,0.48999 c -0.393841,0.62337 -1.184845,1.4372 -1.729781,1.77967 -1.336458,0.83992 -3.015267,1.01569 -4.573497,0.47882 -0.457558,-0.15766 -0.893434,-0.28664 -0.968611,-0.28664 -0.07518,0 -0.327079,0.29913 -0.55978,0.66474 -1.328067,2.08659 -3.266607,3.25825 -5.556417,3.35831 -0.596431,0.0261 -1.215627,-0.0146 -1.611084,-0.10583 z"
           id="path1064" /></g><g
         id="layer2"
         inkscape:label="circles"
         style="display:none;fill:none;fill-opacity:1;stroke:#ffffff;stroke-width:1.56187;stroke-dasharray:none;stroke-opacity:1"><g
           id="g1587"
           transform="matrix(1.132919,0,0,1.132919,-2.1935463,-1.3517379)"
           style="fill:none;fill-opacity:1;stroke:#ffffff;stroke-width:1.37862;stroke-dasharray:none;stroke-opacity:1"><circle
             style="fill:none;fill-opacity:1;stroke:#ffffff;stroke-width:1.37862;stroke-dasharray:none;stroke-opacity:1;stop-color:#000000"
             id="path1233"
             cx="16.105816"
             cy="7.2774463"
             r="4.828702" /><circle
             style="fill:none;fill-opacity:1;stroke:#ffffff;stroke-width:1.37862;stroke-dasharray:none;stroke-opacity:1;stop-color:#000000"
             id="path1233-62"
             cx="10.994065"
             cy="9.1817112"
             r="4.828702" /><circle
             style="fill:none;fill-opacity:1;stroke:#ffffff;stroke-width:1.37862;stroke-dasharray:none;stroke-opacity:1;stop-color:#000000"
             id="path1233-9"
             cx="13.422244"
             cy="17.892057"
             r="4.828702" /><circle
             style="fill:none;fill-opacity:1;stroke:#ffffff;stroke-width:1.37862;stroke-dasharray:none;stroke-opacity:1;stop-color:#000000"
             id="path1233-3"
             cx="21.870173"
             cy="11.14428"
             r="4.828702" /><circle
             style="fill:none;fill-opacity:1;stroke:#ffffff;stroke-width:1.37862;stroke-dasharray:none;stroke-opacity:1;stop-color:#000000"
             id="path1233-6"
             cx="28.28079"
             cy="12.414901"
             r="4.828702" /><circle
             style="fill:none;fill-opacity:1;stroke:#ffffff;stroke-width:1.37862;stroke-dasharray:none;stroke-opacity:1;stop-color:#000000"
             id="path1233-7"
             cx="21.870173"
             cy="15.619712"
             r="4.828702" /><circle
             style="fill:none;fill-opacity:1;stroke:#ffffff;stroke-width:1.37862;stroke-dasharray:none;stroke-opacity:1;stop-color:#000000"
             id="path1233-35"
             cx="7.6286421"
             cy="15.276368"
             r="4.828702" /></g></g><g
         id="layer3"
         inkscape:label="meged"
         style="display:inline;fill:none;fill-opacity:1;stroke:#ffffff;stroke-width:1.56187;stroke-dasharray:none;stroke-opacity:1"><path
           id="path1233-626"
           style="display:inline;fill:none;fill-opacity:1;stroke:#ffffff;stroke-width:1.56187;stroke-dasharray:none;stroke-opacity:1;stop-color:#000000"
           d="m 16.053241,1.4227196 c -1.778231,8.389e-4 -3.445101,0.8659343 -4.469343,2.3195613 -0.4324,-0.1076963 -0.876339,-0.162156 -1.321951,-0.1621702 -3.0212392,3.51e-5 -5.4704291,2.4492249 -5.4704642,5.4704646 1.999e-4,0.5505015 0.083492,1.0978187 0.2470609,1.6234587 -2.3927998,0.638499 -4.05819955,2.80484 -4.06011048,5.281363 3.501e-5,3.021241 2.44922478,5.47043 5.47046458,5.470466 0.5388138,-2.99e-4 1.0746278,-0.0802 1.5900879,-0.237109 0.8887611,1.948283 2.8325763,3.198858 4.9740013,3.200081 2.656211,-0.0018 4.927291,-1.911406 5.384989,-4.527886 1.038327,1.237138 2.57027,1.952218 4.185396,1.953653 2.456731,-0.0016 4.611103,-1.640697 5.267899,-4.008005 0.635716,0.249088 1.312445,0.376967 1.995221,0.377031 3.021239,-3.5e-5 5.470429,-2.449224 5.470464,-5.470464 -3.5e-5,-3.0212392 -2.449225,-5.4704298 -5.470464,-5.4704648 -1.004776,0.00121 -1.989811,0.2791139 -2.847055,0.8032402 -1.029889,-1.4093499 -2.670516,-2.242605 -4.416065,-2.2428671 -0.38541,8.762e-4 -0.769649,0.042479 -1.146315,0.1241159 C 20.969375,3.3204513 18.701599,1.4230759 16.053241,1.4227196 Z"
           sodipodi:nodetypes="ccccccccccccccccccc" /></g></g><path
       style="fill:none;stroke:#ffffff;stroke-width:10.6866;stroke-linecap:round;stroke-linejoin:round;stroke-dasharray:none;stroke-opacity:1"
       d="M -20.620881,120.62892 H 67.141622 L 83.199374,76.491882 103.26166,144.21538 114.69024,120.62892 H 257.06093"
       id="path1"
       sodipodi:nodetypes="cccccc" /></g></svg>
